<svg id="Layer_1" data-name="Layer 1" xmlns="http://www.w3.org/2000/svg" viewBox="0 0 1080 1080"><defs><style>.cls-1{fill:#1c6758;}.cls-2{fill:#dbba42;}</style></defs><title>Artboard 1qadaa logo</title><path class="cls-1" d="M551.76,254.86v12.8a5.81,5.81,0,0,1,1.75,4.56h11.77C565.28,262.42,559,256.53,551.76,254.86Z"/><polygon class="cls-1" points="788.35 568.83 805 568.83 732.26 496.1 659.06 568.83 676.17 568.83 732.26 512.74 788.35 568.83"/><rect class="cls-1" x="659.52" y="578.12" width="145.48" height="11.77"/><rect class="cls-1" x="659.52" y="598.3" width="145.48" height="11.77"/><path class="cls-1" d="M732.26,691.13c19,0,36.65-6.46,49.85-18.19C797.06,659.65,805,640.8,805,618.42H793.2c0,41.87-31.59,60.94-60.94,60.94s-60.93-19.07-60.93-60.94H659.55C659.55,666.16,696.13,691.13,732.26,691.13Z"/><path class="cls-1" d="M732.26,667.13c24.2,0,48.7-16.73,48.7-48.71H769.19c0,25.38-19.14,36.94-36.93,36.94s-36.93-11.56-36.93-36.94H683.56C683.56,650.4,708.06,667.13,732.26,667.13Z"/><path class="cls-1" d="M732.26,643c12.2,0,24.55-8.43,24.55-24.55H745c0,8.83-6.42,12.78-12.78,12.78s-12.77-4-12.77-12.78H707.72C707.72,634.54,720.06,643,732.26,643Z"/><rect class="cls-1" x="726.38" y="329.27" width="11.77" height="175.15"/><path class="cls-1" d="M709.17,312.06a23.1,23.1,0,1,1,23.09,23.09A23.12,23.12,0,0,1,709.17,312.06Zm11.77,0a11.33,11.33,0,1,0,11.32-11.33A11.34,11.34,0,0,0,720.94,312.06Z"/><path class="cls-1" d="M588.47,366.78c23.7-4.72,43.2-12.27,58-22.44,36.11-24.88,74-16.42,74.38-16.33l.92-11.87c-1.76-.41-41.63-9.29-82,18.51-13.44,9.25-31.47,16.18-53.59,20.59Z"/><path class="cls-1" d="M582,346.1c24.36-4.69,44.35-12.34,59.43-22.73,36.1-24.88,74-16.42,74.37-16.33l2.68-11.46c-1.76-.41-43.39-9.7-83.73,18.1-13.73,9.46-32.23,16.48-55,20.87Z"/><path class="cls-1" d="M551.76,323.38v73.43h14.78l21.58-20.15V323.38Zm24.59,48.17L561.9,385h-8.61V335.15h23.06Z"/><rect class="cls-1" x="551.76" y="302.81" width="36.75" height="11.77"/><rect class="cls-1" x="551.76" y="282.47" width="36.75" height="11.77"/><rect class="cls-1" x="553.05" y="407.74" width="11.77" height="278.28"/><path class="cls-1" d="M551.76,230.78v11.84c13,1.71,25.53,11.13,25.53,29.6h11.77C589.06,246.79,570.94,232.64,551.76,230.78Z"/><polygon class="cls-1" points="601.49 716.28 601.49 697.22 551.76 697.22 551.76 709 589.72 709 589.72 728.05 623.63 728.05 623.63 716.28 601.49 716.28"/><polygon class="cls-1" points="579.34 757.76 579.34 738.7 551.76 738.7 551.76 750.47 568.38 750.47 568.38 769.53 692.73 769.53 692.73 757.76 579.34 757.76"/><polygon class="cls-1" points="579.34 737.02 579.34 717.96 551.76 717.96 551.76 729.73 568.38 729.73 568.38 748.79 692.73 748.79 692.73 737.02 579.34 737.02"/><path class="cls-2" d="M535.14,763.54q0,5.15-4.28,5.14H519.14q-4.57,0-4.57-5.14V748.68q-4.86,4.86-14.29,7.57A70.94,70.94,0,0,1,480.56,759q-13.71,0-23.29-4a40.84,40.84,0,0,1-15.57-11A43,43,0,0,1,433,727.25a78.39,78.39,0,0,1-2.72-21.15c0-4.19.15-8,.43-11.43a100.1,100.1,0,0,1,1.57-10.86q.87-5.14,4.86-5.14h10q4.58,0,4,5.14-.87,12.57-.86,18,0,18.87,7.29,27.44T482,737.82q25.44,0,32.58-14.29V677.24q0-4.86,4.57-4.86h11.72q4.27,0,4.28,4.86Z"/><path class="cls-2" d="M353.11,630.37a4.84,4.84,0,0,1-3.58-1.57,5.3,5.3,0,0,1-1.53-3.86v-14a4.84,4.84,0,0,1,1.53-3.71,5.06,5.06,0,0,1,3.58-1.43H503a20.37,20.37,0,0,0,8-1.29,9.7,9.7,0,0,0,4.47-3.71,15.18,15.18,0,0,0,2-6,56.55,56.55,0,0,0,.51-8.14v-7.14h22v13.43a81,81,0,0,1-1.4,16,28.5,28.5,0,0,1-5.11,11.72,22.41,22.41,0,0,1-9.83,7.28q-6.13,2.43-15.83,2.43Z"/><path class="cls-2" d="M519.14,590.94c-1.14,0-2-1-2.72-2.86a21,21,0,0,1-1-6.86V548.65H415.1a5.74,5.74,0,0,1-4-1.58,5,5,0,0,1-1.71-3.85V530.07a5.08,5.08,0,0,1,1.7-3.86,5.63,5.63,0,0,1,3.95-1.57h11.28a67.09,67.09,0,0,1-9.17-16.57,114.54,114.54,0,0,1-5.36-18,125.85,125.85,0,0,1-2.4-16.57c-.38-5.15-.57-9.33-.57-12.58a119.73,119.73,0,0,1,4-32.43,58.42,58.42,0,0,1,12.83-23.86,55.43,55.43,0,0,1,22.8-14.72q14-5,33.91-5h11.55q4.13,0,8.12.29t7.55.85a31.32,31.32,0,0,1,5.84,1.43V364.32H540v216.9a20.74,20.74,0,0,1-1,6.86c-.67,1.9-1.67,2.86-3,2.86Zm-3.72-66.3q.3-7.14.29-14.72V416.34q0-4-4.72-5.72t-19.86-1.72H486q-15.72,0-26,3.58a37.28,37.28,0,0,0-16.43,10.71,42,42,0,0,0-8.71,18,110.89,110.89,0,0,0-2.58,25.43c0,2.86.25,6.71.72,11.57a150.91,150.91,0,0,0,2.43,15.58,119.33,119.33,0,0,0,4.71,16.57A48.9,48.9,0,0,0,448,524.64ZM354.25,480.35a5.74,5.74,0,0,1-4.57-2,6.67,6.67,0,0,1-1.72-4.52V461.41a6.15,6.15,0,0,1,1.72-4.37,6,6,0,0,1,4.57-1.84h15.43A5.65,5.65,0,0,1,374,457a6.57,6.57,0,0,1,1.71,4.66v12.15a6.57,6.57,0,0,1-1.71,4.66,5.61,5.61,0,0,1-4.29,1.84Z"/><path class="cls-2" d="M519.14,375.76c-1.14,0-2-1-2.72-2.86a21,21,0,0,1-1-6.86V331.18a47.57,47.57,0,0,1-15.71,9q-9.72,3.57-24.29,3.57h-6.86q-28.86,0-45.15-17.57t-16.29-48.44q0-12,1-23.43a99.59,99.59,0,0,1,3.28-19.15c.39-1.9,1-3.15,1.72-3.72a5.69,5.69,0,0,1,3.43-.85h85.3c3.71,0,7.43,0,11.14.14s7.29.24,10.72.43,6.57.38,9.43.57q4.86.28,5.43,6.29,1.14,12,1.29,23t.14,22.43V366a20.78,20.78,0,0,1-1,6.86c-.67,1.9-1.67,2.86-3,2.86Zm-43.72-56q19.71,0,30.14-9T516,282.6q0-6.57-.15-14.29t-.71-13.72h-84A116.6,116.6,0,0,0,430,266.31q-.28,6-.29,13.43,0,19.71,10,29.86t29.44,10.15Zm-121.17-.86a5.92,5.92,0,0,1-4.57-1.86,6.65,6.65,0,0,1-1.72-4.71V301.17a6.65,6.65,0,0,1,1.72-4.71,5.92,5.92,0,0,1,4.57-1.86h15.43a5.43,5.43,0,0,1,4.29,2,6.83,6.83,0,0,1,1.71,4.57v11.15A6.69,6.69,0,0,1,374,317a5.6,5.6,0,0,1-4.29,1.86Zm0-46.58a5.58,5.58,0,0,1-4.57-2.14,7.35,7.35,0,0,1-1.72-4.72V254.31a6.82,6.82,0,0,1,1.72-4.58,5.73,5.73,0,0,1,4.57-2h15.43a5.43,5.43,0,0,1,4.29,2,6.86,6.86,0,0,1,1.71,4.58v11.14a7.39,7.39,0,0,1-1.71,4.72,5.31,5.31,0,0,1-4.29,2.14Z"/></svg>